<svg xmlns="http://www.w3.org/2000/svg" xmlns:xlink="http://www.w3.org/1999/xlink" width="256" zoomAndPan="magnify" viewBox="0 0 192 191.999996" height="256" preserveAspectRatio="xMidYMid meet" version="1.0"><defs><g/></defs><rect x="-19.2" width="230.4" fill="#ffffff" y="-19.2" height="230.399995" fill-opacity="1"/><rect x="-19.2" width="230.4" fill="#ffffff" y="-19.2" height="230.399995" fill-opacity="1"/><g fill="#0d9488" fill-opacity="1"><g transform="translate(10.71797, 113.249993)"><g><path d="M 32.9375 -24.203125 C 34.238281 -23.023438 35.460938 -21.28125 36.609375 -18.96875 C 37.765625 -16.65625 39.628906 -11.023438 42.203125 -2.078125 C 42.941406 0.460938 43.597656 2.398438 44.171875 3.734375 C 44.753906 5.078125 45.625 6.242188 46.78125 7.234375 C 47.9375 8.234375 49.148438 8.734375 50.421875 8.734375 C 52.054688 8.734375 53.164062 7.71875 53.75 5.6875 C 54.113281 4.457031 54.539062 3.628906 55.03125 3.203125 C 55.519531 2.773438 56.0625 2.5625 56.65625 2.5625 C 57.332031 2.5625 57.882812 2.773438 58.3125 3.203125 C 58.738281 3.628906 58.953125 4.164062 58.953125 4.8125 C 58.953125 6.175781 58.140625 7.507812 56.515625 8.8125 C 54.898438 10.125 52.796875 10.78125 50.203125 10.78125 C 47.828125 10.78125 45.601562 10.25 43.53125 9.1875 C 41.46875 8.125 39.570312 6.320312 37.84375 3.78125 C 36.125 1.238281 34.515625 -2.410156 33.015625 -7.171875 C 30.796875 -13.859375 28.617188 -18.921875 26.484375 -22.359375 L 22.84375 -8.328125 C 22.3125 -6.359375 21.835938 -4.3125 21.421875 -2.1875 C 23.046875 -1.539062 24.46875 -1.21875 25.6875 -1.21875 C 26.269531 -1.21875 26.703125 -1.238281 26.984375 -1.28125 L 26.484375 0.421875 C 25.953125 0.460938 25.664062 0.484375 25.625 0.484375 C 24.601562 0.484375 23.515625 0.390625 22.359375 0.203125 C 20.742188 0.0664062 19.300781 0 18.03125 0 C 14.789062 0 11.265625 0.378906 7.453125 1.140625 L 7.65625 -0.5625 C 8.84375 -0.789062 9.820312 -1.0625 10.59375 -1.375 C 11.363281 -1.6875 12.015625 -2.078125 12.546875 -2.546875 C 13.078125 -3.023438 13.519531 -3.632812 13.875 -4.375 C 14.238281 -5.113281 14.847656 -6.929688 15.703125 -9.828125 C 16.554688 -12.734375 19.179688 -22.445312 23.578125 -38.96875 C 21.015625 -38.8125 18.742188 -38.410156 16.765625 -37.765625 C 14.785156 -37.117188 13.1875 -36.296875 11.96875 -35.296875 C 10.757812 -34.304688 10.15625 -33.117188 10.15625 -31.734375 C 10.15625 -30.898438 10.457031 -29.984375 11.0625 -28.984375 C 11.382812 -28.472656 11.617188 -28.070312 11.765625 -27.78125 C 11.921875 -27.5 12 -27.140625 12 -26.703125 C 12 -26.054688 11.753906 -25.488281 11.265625 -25 C 10.785156 -24.507812 10.148438 -24.265625 9.359375 -24.265625 C 8.503906 -24.265625 7.757812 -24.65625 7.125 -25.4375 C 6.488281 -26.226562 6.171875 -27.257812 6.171875 -28.53125 C 6.171875 -31.101562 7.003906 -33.335938 8.671875 -35.234375 C 10.335938 -37.128906 12.679688 -38.582031 15.703125 -39.59375 C 18.734375 -40.613281 22.039062 -41.125 25.625 -41.125 L 32.046875 -41.125 C 30.722656 -37.675781 29.890625 -35.285156 29.546875 -33.953125 L 26.765625 -23.4375 C 28.242188 -23.96875 30.285156 -25.097656 32.890625 -26.828125 C 35.492188 -28.566406 38.226562 -30.679688 41.09375 -33.171875 C 43.957031 -35.671875 45.570312 -37.128906 45.9375 -37.546875 C 46.082031 -37.785156 46.15625 -38.007812 46.15625 -38.21875 C 46.15625 -38.351562 46.015625 -38.476562 45.734375 -38.59375 C 45.460938 -38.707031 45.03125 -38.785156 44.4375 -38.828125 C 43.84375 -38.878906 42.851562 -38.925781 41.46875 -38.96875 L 41.890625 -40.921875 C 44.679688 -40.617188 47.117188 -40.46875 49.203125 -40.46875 C 51.347656 -40.46875 53.578125 -40.617188 55.890625 -40.921875 L 55.6875 -40.046875 C 53.769531 -39.566406 52.097656 -38.90625 50.671875 -38.0625 C 49.253906 -37.21875 47.722656 -36.03125 46.078125 -34.5 C 41.640625 -30.550781 37.257812 -27.117188 32.9375 -24.203125 Z M 32.9375 -24.203125 "/></g></g></g><g fill="#0d9488" fill-opacity="1"><g transform="translate(59.706507, 113.249993)"><g><path d="M 40.78125 -26.140625 C 40.914062 -28.085938 40.984375 -29.40625 40.984375 -30.09375 C 40.984375 -33.21875 40.34375 -35.578125 39.0625 -37.171875 C 37.78125 -38.765625 35.984375 -39.5625 33.671875 -39.5625 C 30.640625 -39.5625 27.660156 -38.164062 24.734375 -35.375 C 21.816406 -32.59375 19.503906 -29.003906 17.796875 -24.609375 C 16.097656 -20.222656 15.25 -15.765625 15.25 -11.234375 C 15.25 -6.679688 16.15625 -3.03125 17.96875 -0.28125 C 19.789062 2.46875 22.25 3.84375 25.34375 3.84375 C 26.550781 3.84375 27.644531 3.640625 28.625 3.234375 C 29.601562 2.835938 30.488281 2.335938 31.28125 1.734375 C 32.082031 1.128906 32.785156 0.484375 33.390625 -0.203125 C 33.992188 -0.898438 34.53125 -1.546875 35 -2.140625 C 35.476562 -2.742188 35.882812 -3.25 36.21875 -3.65625 C 36.550781 -4.0625 36.832031 -4.265625 37.0625 -4.265625 C 37.382812 -4.265625 37.644531 -4.148438 37.84375 -3.921875 C 38.039062 -3.691406 38.140625 -3.472656 38.140625 -3.265625 C 38.140625 -2.640625 37.53125 -1.617188 36.3125 -0.203125 C 35.101562 1.203125 33.769531 2.410156 32.3125 3.421875 C 30.863281 4.441406 29.273438 5.253906 27.546875 5.859375 C 25.828125 6.460938 24.125 6.765625 22.4375 6.765625 C 19.425781 6.765625 16.726562 6.046875 14.34375 4.609375 C 11.96875 3.179688 10.117188 1.128906 8.796875 -1.546875 C 7.484375 -4.234375 6.828125 -7.3125 6.828125 -10.78125 C 6.828125 -15.78125 8.113281 -20.707031 10.6875 -25.5625 C 13.269531 -30.414062 16.628906 -34.300781 20.765625 -37.21875 C 24.910156 -40.144531 29.097656 -41.609375 33.328125 -41.609375 C 35.773438 -41.609375 38.753906 -41.007812 42.265625 -39.8125 L 45.015625 -38.90625 C 43.617188 -34.65625 42.84375 -30.398438 42.6875 -26.140625 Z M 40.78125 -26.140625 "/></g></g></g><g fill="#0d9488" fill-opacity="1"><g transform="translate(98.051388, 113.249993)"><g><path d="M 9.4375 -7.734375 C 10.539062 -7.734375 11.457031 -7.378906 12.1875 -6.671875 C 12.914062 -5.972656 13.28125 -5.054688 13.28125 -3.921875 C 13.28125 -2.390625 12.851562 -1.195312 12 -0.34375 C 11.144531 0.507812 10.054688 0.9375 8.734375 0.9375 C 7.691406 0.9375 6.84375 0.617188 6.1875 -0.015625 C 5.53125 -0.648438 5.203125 -1.476562 5.203125 -2.5 C 5.203125 -4 5.601562 -5.242188 6.40625 -6.234375 C 7.21875 -7.234375 8.226562 -7.734375 9.4375 -7.734375 Z M 9.4375 -7.734375 "/></g></g></g><g fill="#0d9488" fill-opacity="1"><g transform="translate(114.796943, 113.249993)"><g><path d="M 34.8125 -30.234375 L 32.171875 -21.421875 C 31.179688 -18.171875 30.289062 -14.722656 29.5 -11.078125 C 28.71875 -7.441406 28.328125 -5.21875 28.328125 -4.40625 C 28.328125 -3.6875 28.617188 -3.328125 29.203125 -3.328125 C 29.640625 -3.328125 30.460938 -3.695312 31.671875 -4.4375 C 32.890625 -5.175781 34.125 -6.132812 35.375 -7.3125 L 36.3125 -6.109375 C 33.144531 -3.191406 30.703125 -1.300781 28.984375 -0.4375 C 27.273438 0.425781 25.453125 0.859375 23.515625 0.859375 C 22.703125 0.859375 22.035156 0.691406 21.515625 0.359375 C 20.992188 0.0234375 20.734375 -0.425781 20.734375 -1 C 20.734375 -1.445312 20.875 -2.175781 21.15625 -3.1875 L 22.234375 -6.828125 C 20.242188 -4.566406 18.101562 -2.695312 15.8125 -1.21875 C 13.519531 0.257812 11.566406 1 9.953125 1 C 8.515625 1 7.363281 0.441406 6.5 -0.671875 C 5.632812 -1.796875 5.203125 -3.398438 5.203125 -5.484375 C 5.203125 -7.859375 5.863281 -10.46875 7.1875 -13.3125 C 8.519531 -16.15625 10.289062 -18.753906 12.5 -21.109375 C 14.707031 -23.472656 17.070312 -25.3125 19.59375 -26.625 C 20.882812 -27.300781 22.179688 -27.800781 23.484375 -28.125 C 24.796875 -28.445312 26.609375 -28.609375 28.921875 -28.609375 L 31.375 -28.40625 L 32.25 -29.75 Z M 26.078125 -24.453125 C 25.015625 -24.722656 24.039062 -24.859375 23.15625 -24.859375 C 21.125 -24.859375 19.410156 -24.203125 18.015625 -22.890625 C 16.617188 -21.585938 15.359375 -19.515625 14.234375 -16.671875 C 13.109375 -13.828125 12.546875 -10.941406 12.546875 -8.015625 C 12.546875 -5.078125 13.378906 -3.609375 15.046875 -3.609375 C 15.921875 -3.609375 16.921875 -4.039062 18.046875 -4.90625 C 19.171875 -5.769531 20.210938 -6.96875 21.171875 -8.5 C 22.128906 -10.039062 22.835938 -11.75 23.296875 -13.625 Z M 26.078125 -24.453125 "/></g></g></g><g fill="#0d9488" fill-opacity="1"><g transform="translate(147.386625, 113.249993)"><g><path d="M 22.953125 -5.890625 C 20.503906 -3.367188 18.289062 -1.585938 16.3125 -0.546875 C 14.332031 0.484375 12.394531 1 10.5 1 C 9.644531 1 8.976562 0.734375 8.5 0.203125 C 8.03125 -0.328125 7.796875 -1.03125 7.796875 -1.90625 C 7.796875 -3.570312 8.257812 -6.148438 9.1875 -9.640625 C 10.113281 -13.128906 11.410156 -17.613281 13.078125 -23.09375 C 13.210938 -23.644531 13.28125 -24.117188 13.28125 -24.515625 C 13.28125 -24.703125 13.222656 -24.863281 13.109375 -25 C 12.992188 -25.132812 12.84375 -25.203125 12.65625 -25.203125 C 11.84375 -25.203125 10.957031 -24.820312 10 -24.0625 C 9.039062 -23.300781 8.007812 -22.378906 6.90625 -21.296875 L 5.625 -22.296875 C 9.914062 -26.984375 13.9375 -29.328125 17.6875 -29.328125 C 18.75 -29.328125 19.554688 -29.109375 20.109375 -28.671875 C 20.660156 -28.234375 20.9375 -27.785156 20.9375 -27.328125 C 20.9375 -26.003906 20.382812 -23.503906 19.28125 -19.828125 C 16.550781 -10.929688 15.1875 -5.628906 15.1875 -3.921875 C 15.1875 -3.660156 15.253906 -3.40625 15.390625 -3.15625 C 15.535156 -2.90625 15.734375 -2.78125 15.984375 -2.78125 C 16.398438 -2.78125 17.140625 -3.160156 18.203125 -3.921875 C 19.265625 -4.679688 20.515625 -5.742188 21.953125 -7.109375 Z M 22.09375 -45.078125 C 23.0625 -45.078125 23.820312 -44.765625 24.375 -44.140625 C 24.925781 -43.515625 25.203125 -42.71875 25.203125 -41.75 C 25.203125 -40.457031 24.75 -39.285156 23.84375 -38.234375 C 22.945312 -37.179688 21.890625 -36.65625 20.671875 -36.65625 C 19.691406 -36.65625 18.9375 -36.988281 18.40625 -37.65625 C 17.875 -38.320312 17.609375 -39.144531 17.609375 -40.125 C 17.609375 -41.53125 18.035156 -42.707031 18.890625 -43.65625 C 19.753906 -44.601562 20.820312 -45.078125 22.09375 -45.078125 Z M 22.09375 -45.078125 "/></g></g></g></svg>